<?xml version="1.0" encoding="utf-8" standalone="no"?>
<!DOCTYPE svg PUBLIC "-//W3C//DTD SVG 1.1//EN"
  "http://www.w3.org/Graphics/SVG/1.1/DTD/svg11.dtd">
<!-- Created with matplotlib (http://matplotlib.org/) -->
<svg height="135pt" version="1.1" viewBox="0 0 697 135" width="697pt" xmlns="http://www.w3.org/2000/svg" xmlns:xlink="http://www.w3.org/1999/xlink">
 <defs>
  <style type="text/css">
*{stroke-linecap:butt;stroke-linejoin:round;}
  </style>
 </defs>
 <g id="figure_1">
  <g id="patch_1">
   <path d="M -0 135.895 
L 697.318 135.895 
L 697.318 0 
L -0 0 
z
" style="fill:none;"/>
  </g>
  <g id="axes_1">
   <g id="patch_2">
    <path clip-path="url(#pe281d7dd1c)" d="M 387.269 102.245 
C 387.269 103.259064 387.695986 104.232632 388.455218 104.949683 
C 389.214449 105.666735 390.245285 106.07 391.319 106.07 
C 392.392715 106.07 393.423551 105.666735 394.182782 104.949683 
C 394.942014 104.232632 395.369 103.259064 395.369 102.245 
" style="fill:none;stroke:#000000;stroke-linejoin:miter;stroke-width:1.5;"/>
   </g>
   <g id="patch_3">
    <path clip-path="url(#pe281d7dd1c)" d="M 379.169 102.245 
C 379.169 103.259064 379.595986 104.232632 380.355218 104.949683 
C 381.114449 105.666735 382.145285 106.07 383.219 106.07 
C 384.292715 106.07 385.323551 105.666735 386.082782 104.949683 
C 386.842014 104.232632 387.269 103.259064 387.269 102.245 
" style="fill:none;stroke:#000000;stroke-linejoin:miter;stroke-width:1.5;"/>
   </g>
   <g id="patch_4">
    <path clip-path="url(#pe281d7dd1c)" d="M 371.069 102.245 
C 371.069 103.259064 371.495986 104.232632 372.255218 104.949683 
C 373.014449 105.666735 374.045285 106.07 375.119 106.07 
C 376.192715 106.07 377.223551 105.666735 377.982782 104.949683 
C 378.742014 104.232632 379.169 103.259064 379.169 102.245 
" style="fill:none;stroke:#000000;stroke-linejoin:miter;stroke-width:1.5;"/>
   </g>
   <g id="patch_5">
    <path clip-path="url(#pe281d7dd1c)" d="M 362.969 102.245 
C 362.969 103.259064 363.395986 104.232632 364.155218 104.949683 
C 364.914449 105.666735 365.945285 106.07 367.019 106.07 
C 368.092715 106.07 369.123551 105.666735 369.882782 104.949683 
C 370.642014 104.232632 371.069 103.259064 371.069 102.245 
" style="fill:none;stroke:#000000;stroke-linejoin:miter;stroke-width:1.5;"/>
   </g>
   <g id="patch_6">
    <path clip-path="url(#pe281d7dd1c)" d="M 338.669 102.245 
C 338.669 103.259064 339.095986 104.232632 339.855218 104.949683 
C 340.614449 105.666735 341.645285 106.07 342.719 106.07 
C 343.792715 106.07 344.823551 105.666735 345.582782 104.949683 
C 346.342014 104.232632 346.769 103.259064 346.769 102.245 
" style="fill:none;stroke:#000000;stroke-linejoin:miter;stroke-width:1.5;"/>
   </g>
   <g id="patch_7">
    <path clip-path="url(#pe281d7dd1c)" d="M 330.569 102.245 
C 330.569 103.259064 330.995986 104.232632 331.755218 104.949683 
C 332.514449 105.666735 333.545285 106.07 334.619 106.07 
C 335.692715 106.07 336.723551 105.666735 337.482782 104.949683 
C 338.242014 104.232632 338.669 103.259064 338.669 102.245 
" style="fill:none;stroke:#000000;stroke-linejoin:miter;stroke-width:1.5;"/>
   </g>
   <g id="patch_8">
    <path clip-path="url(#pe281d7dd1c)" d="M 322.469 102.245 
C 322.469 103.259064 322.895986 104.232632 323.655218 104.949683 
C 324.414449 105.666735 325.445285 106.07 326.519 106.07 
C 327.592715 106.07 328.623551 105.666735 329.382782 104.949683 
C 330.142014 104.232632 330.569 103.259064 330.569 102.245 
" style="fill:none;stroke:#000000;stroke-linejoin:miter;stroke-width:1.5;"/>
   </g>
   <g id="patch_9">
    <path clip-path="url(#pe281d7dd1c)" d="M 314.369 102.245 
C 314.369 103.259064 314.795986 104.232632 315.555218 104.949683 
C 316.314449 105.666735 317.345285 106.07 318.419 106.07 
C 319.492715 106.07 320.523551 105.666735 321.282782 104.949683 
C 322.042014 104.232632 322.469 103.259064 322.469 102.245 
" style="fill:none;stroke:#000000;stroke-linejoin:miter;stroke-width:1.5;"/>
   </g>
   <g id="patch_10">
    <path clip-path="url(#pe281d7dd1c)" d="M 241.469 102.245 
C 241.469 103.259064 241.895986 104.232632 242.655218 104.949683 
C 243.414449 105.666735 244.445285 106.07 245.519 106.07 
C 246.592715 106.07 247.623551 105.666735 248.382782 104.949683 
C 249.142014 104.232632 249.569 103.259064 249.569 102.245 
" style="fill:none;stroke:#000000;stroke-linejoin:miter;stroke-width:1.5;"/>
   </g>
   <g id="patch_11">
    <path clip-path="url(#pe281d7dd1c)" d="M 233.369 102.245 
C 233.369 103.259064 233.795986 104.232632 234.555218 104.949683 
C 235.314449 105.666735 236.345285 106.07 237.419 106.07 
C 238.492715 106.07 239.523551 105.666735 240.282782 104.949683 
C 241.042014 104.232632 241.469 103.259064 241.469 102.245 
" style="fill:none;stroke:#000000;stroke-linejoin:miter;stroke-width:1.5;"/>
   </g>
   <g id="patch_12">
    <path clip-path="url(#pe281d7dd1c)" d="M 225.269 102.245 
C 225.269 103.259064 225.695986 104.232632 226.455218 104.949683 
C 227.214449 105.666735 228.245285 106.07 229.319 106.07 
C 230.392715 106.07 231.423551 105.666735 232.182782 104.949683 
C 232.942014 104.232632 233.369 103.259064 233.369 102.245 
" style="fill:none;stroke:#000000;stroke-linejoin:miter;stroke-width:1.5;"/>
   </g>
   <g id="patch_13">
    <path clip-path="url(#pe281d7dd1c)" d="M 217.169 102.245 
C 217.169 103.259064 217.595986 104.232632 218.355218 104.949683 
C 219.114449 105.666735 220.145285 106.07 221.219 106.07 
C 222.292715 106.07 223.323551 105.666735 224.082782 104.949683 
C 224.842014 104.232632 225.269 103.259064 225.269 102.245 
" style="fill:none;stroke:#000000;stroke-linejoin:miter;stroke-width:1.5;"/>
   </g>
   <g id="patch_14">
    <path clip-path="url(#pe281d7dd1c)" d="M 192.869 102.245 
C 192.869 103.259064 193.295986 104.232632 194.055218 104.949683 
C 194.814449 105.666735 195.845285 106.07 196.919 106.07 
C 197.992715 106.07 199.023551 105.666735 199.782782 104.949683 
C 200.542014 104.232632 200.969 103.259064 200.969 102.245 
" style="fill:none;stroke:#000000;stroke-linejoin:miter;stroke-width:1.5;"/>
   </g>
   <g id="patch_15">
    <path clip-path="url(#pe281d7dd1c)" d="M 184.769 102.245 
C 184.769 103.259064 185.195986 104.232632 185.955218 104.949683 
C 186.714449 105.666735 187.745285 106.07 188.819 106.07 
C 189.892715 106.07 190.923551 105.666735 191.682782 104.949683 
C 192.442014 104.232632 192.869 103.259064 192.869 102.245 
" style="fill:none;stroke:#000000;stroke-linejoin:miter;stroke-width:1.5;"/>
   </g>
   <g id="patch_16">
    <path clip-path="url(#pe281d7dd1c)" d="M 176.669 102.245 
C 176.669 103.259064 177.095986 104.232632 177.855218 104.949683 
C 178.614449 105.666735 179.645285 106.07 180.719 106.07 
C 181.792715 106.07 182.823551 105.666735 183.582782 104.949683 
C 184.342014 104.232632 184.769 103.259064 184.769 102.245 
" style="fill:none;stroke:#000000;stroke-linejoin:miter;stroke-width:1.5;"/>
   </g>
   <g id="patch_17">
    <path clip-path="url(#pe281d7dd1c)" d="M 168.569 102.245 
C 168.569 103.259064 168.995986 104.232632 169.755218 104.949683 
C 170.514449 105.666735 171.545285 106.07 172.619 106.07 
C 173.692715 106.07 174.723551 105.666735 175.482782 104.949683 
C 176.242014 104.232632 176.669 103.259064 176.669 102.245 
" style="fill:none;stroke:#000000;stroke-linejoin:miter;stroke-width:1.5;"/>
   </g>
   <g id="patch_18">
    <path clip-path="url(#pe281d7dd1c)" d="M 387.269 41.045 
C 387.269 42.059064 387.695986 43.032632 388.455218 43.749683 
C 389.214449 44.466735 390.245285 44.87 391.319 44.87 
C 392.392715 44.87 393.423551 44.466735 394.182782 43.749683 
C 394.942014 43.032632 395.369 42.059064 395.369 41.045 
" style="fill:none;stroke:#000000;stroke-linejoin:miter;stroke-width:1.5;"/>
   </g>
   <g id="patch_19">
    <path clip-path="url(#pe281d7dd1c)" d="M 379.169 41.045 
C 379.169 42.059064 379.595986 43.032632 380.355218 43.749683 
C 381.114449 44.466735 382.145285 44.87 383.219 44.87 
C 384.292715 44.87 385.323551 44.466735 386.082782 43.749683 
C 386.842014 43.032632 387.269 42.059064 387.269 41.045 
" style="fill:none;stroke:#000000;stroke-linejoin:miter;stroke-width:1.5;"/>
   </g>
   <g id="patch_20">
    <path clip-path="url(#pe281d7dd1c)" d="M 371.069 41.045 
C 371.069 42.059064 371.495986 43.032632 372.255218 43.749683 
C 373.014449 44.466735 374.045285 44.87 375.119 44.87 
C 376.192715 44.87 377.223551 44.466735 377.982782 43.749683 
C 378.742014 43.032632 379.169 42.059064 379.169 41.045 
" style="fill:none;stroke:#000000;stroke-linejoin:miter;stroke-width:1.5;"/>
   </g>
   <g id="patch_21">
    <path clip-path="url(#pe281d7dd1c)" d="M 362.969 41.045 
C 362.969 42.059064 363.395986 43.032632 364.155218 43.749683 
C 364.914449 44.466735 365.945285 44.87 367.019 44.87 
C 368.092715 44.87 369.123551 44.466735 369.882782 43.749683 
C 370.642014 43.032632 371.069 42.059064 371.069 41.045 
" style="fill:none;stroke:#000000;stroke-linejoin:miter;stroke-width:1.5;"/>
   </g>
   <g id="patch_22">
    <path clip-path="url(#pe281d7dd1c)" d="M 338.669 41.045 
C 338.669 42.059064 339.095986 43.032632 339.855218 43.749683 
C 340.614449 44.466735 341.645285 44.87 342.719 44.87 
C 343.792715 44.87 344.823551 44.466735 345.582782 43.749683 
C 346.342014 43.032632 346.769 42.059064 346.769 41.045 
" style="fill:none;stroke:#000000;stroke-linejoin:miter;stroke-width:1.5;"/>
   </g>
   <g id="patch_23">
    <path clip-path="url(#pe281d7dd1c)" d="M 330.569 41.045 
C 330.569 42.059064 330.995986 43.032632 331.755218 43.749683 
C 332.514449 44.466735 333.545285 44.87 334.619 44.87 
C 335.692715 44.87 336.723551 44.466735 337.482782 43.749683 
C 338.242014 43.032632 338.669 42.059064 338.669 41.045 
" style="fill:none;stroke:#000000;stroke-linejoin:miter;stroke-width:1.5;"/>
   </g>
   <g id="patch_24">
    <path clip-path="url(#pe281d7dd1c)" d="M 322.469 41.045 
C 322.469 42.059064 322.895986 43.032632 323.655218 43.749683 
C 324.414449 44.466735 325.445285 44.87 326.519 44.87 
C 327.592715 44.87 328.623551 44.466735 329.382782 43.749683 
C 330.142014 43.032632 330.569 42.059064 330.569 41.045 
" style="fill:none;stroke:#000000;stroke-linejoin:miter;stroke-width:1.5;"/>
   </g>
   <g id="patch_25">
    <path clip-path="url(#pe281d7dd1c)" d="M 314.369 41.045 
C 314.369 42.059064 314.795986 43.032632 315.555218 43.749683 
C 316.314449 44.466735 317.345285 44.87 318.419 44.87 
C 319.492715 44.87 320.523551 44.466735 321.282782 43.749683 
C 322.042014 43.032632 322.469 42.059064 322.469 41.045 
" style="fill:none;stroke:#000000;stroke-linejoin:miter;stroke-width:1.5;"/>
   </g>
   <g id="patch_26">
    <path clip-path="url(#pe281d7dd1c)" d="M 241.469 41.045 
C 241.469 42.059064 241.895986 43.032632 242.655218 43.749683 
C 243.414449 44.466735 244.445285 44.87 245.519 44.87 
C 246.592715 44.87 247.623551 44.466735 248.382782 43.749683 
C 249.142014 43.032632 249.569 42.059064 249.569 41.045 
" style="fill:none;stroke:#000000;stroke-linejoin:miter;stroke-width:1.5;"/>
   </g>
   <g id="patch_27">
    <path clip-path="url(#pe281d7dd1c)" d="M 233.369 41.045 
C 233.369 42.059064 233.795986 43.032632 234.555218 43.749683 
C 235.314449 44.466735 236.345285 44.87 237.419 44.87 
C 238.492715 44.87 239.523551 44.466735 240.282782 43.749683 
C 241.042014 43.032632 241.469 42.059064 241.469 41.045 
" style="fill:none;stroke:#000000;stroke-linejoin:miter;stroke-width:1.5;"/>
   </g>
   <g id="patch_28">
    <path clip-path="url(#pe281d7dd1c)" d="M 225.269 41.045 
C 225.269 42.059064 225.695986 43.032632 226.455218 43.749683 
C 227.214449 44.466735 228.245285 44.87 229.319 44.87 
C 230.392715 44.87 231.423551 44.466735 232.182782 43.749683 
C 232.942014 43.032632 233.369 42.059064 233.369 41.045 
" style="fill:none;stroke:#000000;stroke-linejoin:miter;stroke-width:1.5;"/>
   </g>
   <g id="patch_29">
    <path clip-path="url(#pe281d7dd1c)" d="M 217.169 41.045 
C 217.169 42.059064 217.595986 43.032632 218.355218 43.749683 
C 219.114449 44.466735 220.145285 44.87 221.219 44.87 
C 222.292715 44.87 223.323551 44.466735 224.082782 43.749683 
C 224.842014 43.032632 225.269 42.059064 225.269 41.045 
" style="fill:none;stroke:#000000;stroke-linejoin:miter;stroke-width:1.5;"/>
   </g>
   <g id="patch_30">
    <path clip-path="url(#pe281d7dd1c)" d="M 192.869 41.045 
C 192.869 42.059064 193.295986 43.032632 194.055218 43.749683 
C 194.814449 44.466735 195.845285 44.87 196.919 44.87 
C 197.992715 44.87 199.023551 44.466735 199.782782 43.749683 
C 200.542014 43.032632 200.969 42.059064 200.969 41.045 
" style="fill:none;stroke:#000000;stroke-linejoin:miter;stroke-width:1.5;"/>
   </g>
   <g id="patch_31">
    <path clip-path="url(#pe281d7dd1c)" d="M 184.769 41.045 
C 184.769 42.059064 185.195986 43.032632 185.955218 43.749683 
C 186.714449 44.466735 187.745285 44.87 188.819 44.87 
C 189.892715 44.87 190.923551 44.466735 191.682782 43.749683 
C 192.442014 43.032632 192.869 42.059064 192.869 41.045 
" style="fill:none;stroke:#000000;stroke-linejoin:miter;stroke-width:1.5;"/>
   </g>
   <g id="patch_32">
    <path clip-path="url(#pe281d7dd1c)" d="M 176.669 41.045 
C 176.669 42.059064 177.095986 43.032632 177.855218 43.749683 
C 178.614449 44.466735 179.645285 44.87 180.719 44.87 
C 181.792715 44.87 182.823551 44.466735 183.582782 43.749683 
C 184.342014 43.032632 184.769 42.059064 184.769 41.045 
" style="fill:none;stroke:#000000;stroke-linejoin:miter;stroke-width:1.5;"/>
   </g>
   <g id="patch_33">
    <path clip-path="url(#pe281d7dd1c)" d="M 168.569 41.045 
C 168.569 42.059064 168.995986 43.032632 169.755218 43.749683 
C 170.514449 44.466735 171.545285 44.87 172.619 44.87 
C 173.692715 44.87 174.723551 44.466735 175.482782 43.749683 
C 176.242014 43.032632 176.669 42.059064 176.669 41.045 
" style="fill:none;stroke:#000000;stroke-linejoin:miter;stroke-width:1.5;"/>
   </g>
   <g id="line2d_1">
    <path clip-path="url(#pe281d7dd1c)" d="M 520.109 102.245 
" style="fill:none;stroke:#000000;stroke-linecap:round;stroke-width:1.5;"/>
   </g>
   <g id="line2d_2">
    <path clip-path="url(#pe281d7dd1c)" d="M 520.109 102.245 
L 520.109 71.645 
L 520.109 41.045 
" style="fill:none;stroke:#000000;stroke-linecap:round;stroke-width:1.5;"/>
   </g>
   <g id="line2d_3">
    <path clip-path="url(#pe281d7dd1c)" d="M 520.109 102.245 
L 518.489 102.245 
L 516.869 102.245 
" style="fill:none;stroke:#000000;stroke-linecap:round;stroke-width:1.5;"/>
   </g>
   <g id="line2d_4">
    <path clip-path="url(#pe281d7dd1c)" d="M 516.869 102.245 
L 484.469 102.245 
M 484.469 102.245 
L 452.069 102.245 
" style="fill:none;stroke:#000000;stroke-linecap:round;stroke-width:1.5;"/>
   </g>
   <g id="line2d_5">
    <path clip-path="url(#pe281d7dd1c)" d="M 452.069 102.245 
L 443.969 102.245 
M 443.969 102.245 
L 418.049 116.015 
M 411.569 102.245 
L 403.469 102.245 
" style="fill:none;stroke:#000000;stroke-linecap:round;stroke-width:1.5;"/>
   </g>
   <g id="line2d_6">
    <path clip-path="url(#pe281d7dd1c)" d="M 403.469 102.245 
L 395.369 102.245 
M 362.969 102.245 
L 354.869 102.245 
" style="fill:none;stroke:#000000;stroke-linecap:round;stroke-width:1.5;"/>
   </g>
   <g id="line2d_7">
    <path clip-path="url(#pe281d7dd1c)" d="M 354.869 102.245 
L 346.769 102.245 
M 314.369 102.245 
L 306.269 102.245 
" style="fill:none;stroke:#000000;stroke-linecap:round;stroke-width:1.5;"/>
   </g>
   <g id="line2d_8">
    <path clip-path="url(#pe281d7dd1c)" d="M 306.269 102.245 
L 290.069 102.245 
L 290.069 109.895 
L 273.869 109.895 
L 273.869 94.595 
L 290.069 94.595 
L 290.069 102.245 
M 273.869 102.245 
L 257.669 102.245 
" style="fill:none;stroke:#000000;stroke-linecap:round;stroke-width:1.5;"/>
   </g>
   <g id="line2d_9">
    <path clip-path="url(#pe281d7dd1c)" d="M 257.669 102.245 
L 249.569 102.245 
M 217.169 102.245 
L 209.069 102.245 
" style="fill:none;stroke:#000000;stroke-linecap:round;stroke-width:1.5;"/>
   </g>
   <g id="line2d_10">
    <path clip-path="url(#pe281d7dd1c)" d="M 209.069 102.245 
L 200.969 102.245 
M 168.569 102.245 
L 160.469 102.245 
" style="fill:none;stroke:#000000;stroke-linecap:round;stroke-width:1.5;"/>
   </g>
   <g id="line2d_11">
    <path clip-path="url(#pe281d7dd1c)" d="M 160.469 102.245 
L 152.369 102.245 
M 152.369 102.245 
L 126.449 116.015 
M 119.969 102.245 
L 111.869 102.245 
" style="fill:none;stroke:#000000;stroke-linecap:round;stroke-width:1.5;"/>
   </g>
   <g id="line2d_12">
    <path clip-path="url(#pe281d7dd1c)" d="M 111.869 102.245 
L 79.469 102.245 
M 79.469 102.245 
L 47.069 102.245 
" style="fill:none;stroke:#000000;stroke-linecap:round;stroke-width:1.5;"/>
   </g>
   <g id="line2d_13">
    <path clip-path="url(#pe281d7dd1c)" d="M 520.109 41.045 
L 518.489 41.045 
L 516.869 41.045 
" style="fill:none;stroke:#000000;stroke-linecap:round;stroke-width:1.5;"/>
   </g>
   <g id="line2d_14">
    <path clip-path="url(#pe281d7dd1c)" d="M 516.869 41.045 
L 484.469 41.045 
M 484.469 41.045 
L 452.069 41.045 
" style="fill:none;stroke:#000000;stroke-linecap:round;stroke-width:1.5;"/>
   </g>
   <g id="line2d_15">
    <path clip-path="url(#pe281d7dd1c)" d="M 452.069 41.045 
L 443.969 41.045 
M 443.969 41.045 
L 418.049 54.815 
M 411.569 41.045 
L 403.469 41.045 
" style="fill:none;stroke:#000000;stroke-linecap:round;stroke-width:1.5;"/>
   </g>
   <g id="line2d_16">
    <path clip-path="url(#pe281d7dd1c)" d="M 403.469 41.045 
L 395.369 41.045 
M 362.969 41.045 
L 354.869 41.045 
" style="fill:none;stroke:#000000;stroke-linecap:round;stroke-width:1.5;"/>
   </g>
   <g id="line2d_17">
    <path clip-path="url(#pe281d7dd1c)" d="M 354.869 41.045 
L 346.769 41.045 
M 314.369 41.045 
L 306.269 41.045 
" style="fill:none;stroke:#000000;stroke-linecap:round;stroke-width:1.5;"/>
   </g>
   <g id="line2d_18">
    <path clip-path="url(#pe281d7dd1c)" d="M 306.269 41.045 
L 290.069 41.045 
L 290.069 48.695 
L 273.869 48.695 
L 273.869 33.395 
L 290.069 33.395 
L 290.069 41.045 
M 273.869 41.045 
L 257.669 41.045 
" style="fill:none;stroke:#000000;stroke-linecap:round;stroke-width:1.5;"/>
   </g>
   <g id="line2d_19">
    <path clip-path="url(#pe281d7dd1c)" d="M 257.669 41.045 
L 249.569 41.045 
M 217.169 41.045 
L 209.069 41.045 
" style="fill:none;stroke:#000000;stroke-linecap:round;stroke-width:1.5;"/>
   </g>
   <g id="line2d_20">
    <path clip-path="url(#pe281d7dd1c)" d="M 209.069 41.045 
L 200.969 41.045 
M 168.569 41.045 
L 160.469 41.045 
" style="fill:none;stroke:#000000;stroke-linecap:round;stroke-width:1.5;"/>
   </g>
   <g id="line2d_21">
    <path clip-path="url(#pe281d7dd1c)" d="M 160.469 41.045 
L 152.369 41.045 
M 152.369 41.045 
L 126.449 54.815 
M 119.969 41.045 
L 111.869 41.045 
" style="fill:none;stroke:#000000;stroke-linecap:round;stroke-width:1.5;"/>
   </g>
   <g id="line2d_22">
    <path clip-path="url(#pe281d7dd1c)" d="M 111.869 41.045 
L 79.469 41.045 
M 79.469 41.045 
L 47.069 41.045 
" style="fill:none;stroke:#000000;stroke-linecap:round;stroke-width:1.5;"/>
   </g>
   <g id="line2d_23">
    <path clip-path="url(#pe281d7dd1c)" d="M 520.109 102.245 
L 521.729 102.245 
L 523.349 102.245 
" style="fill:none;stroke:#000000;stroke-linecap:round;stroke-width:1.5;"/>
   </g>
   <g id="line2d_24">
    <path clip-path="url(#pe281d7dd1c)" d="M 523.349 102.245 
L 555.749 102.245 
M 555.749 102.245 
L 588.149 102.245 
" style="fill:none;stroke:#000000;stroke-linecap:round;stroke-width:1.5;"/>
   </g>
   <g id="line2d_25">
    <path clip-path="url(#pe281d7dd1c)" d="M 588.149 102.245 
L 604.349 102.245 
L 604.349 94.595 
L 636.749 94.595 
L 636.749 109.895 
L 604.349 109.895 
L 604.349 102.245 
M 636.749 102.245 
L 652.949 102.245 
" style="fill:none;stroke:#000000;stroke-linecap:round;stroke-width:1.5;"/>
   </g>
   <g id="patch_34">
    <path clip-path="url(#pe281d7dd1c)" d="M 520.109 104.54 
C 520.753444 104.54 521.371579 104.298184 521.827269 103.86781 
C 522.28296 103.437436 522.539 102.853641 522.539 102.245 
C 522.539 101.636359 522.28296 101.052564 521.827269 100.62219 
C 521.371579 100.191816 520.753444 99.95 520.109 99.95 
C 519.464556 99.95 518.846421 100.191816 518.390731 100.62219 
C 517.93504 101.052564 517.679 101.636359 517.679 102.245 
C 517.679 102.853641 517.93504 103.437436 518.390731 103.86781 
C 518.846421 104.298184 519.464556 104.54 520.109 104.54 
z
" style="stroke:#000000;stroke-linejoin:miter;stroke-width:1.5;"/>
   </g>
   <g id="patch_35">
    <path clip-path="url(#pe281d7dd1c)" d="M 508.769 99.695 
L 508.769 104.795 
L 460.169 104.795 
L 460.169 99.695 
z
" style="stroke:#000000;stroke-linejoin:miter;stroke-width:1.5;"/>
   </g>
   <g id="patch_36">
    <path clip-path="url(#pe281d7dd1c)" d="M 103.769 99.695 
L 103.769 104.795 
L 55.169 104.795 
L 55.169 99.695 
z
" style="stroke:#000000;stroke-linejoin:miter;stroke-width:1.5;"/>
   </g>
   <g id="patch_37">
    <path clip-path="url(#pe281d7dd1c)" d="M 49.769 117.545 
L 49.769 86.945 
L 44.369 86.945 
L 44.369 117.545 
z
" style="stroke:#000000;stroke-linejoin:miter;stroke-width:1.5;"/>
   </g>
   <g id="patch_38">
    <path clip-path="url(#pe281d7dd1c)" d="M 508.769 38.495 
L 508.769 43.595 
L 460.169 43.595 
L 460.169 38.495 
z
" style="stroke:#000000;stroke-linejoin:miter;stroke-width:1.5;"/>
   </g>
   <g id="patch_39">
    <path clip-path="url(#pe281d7dd1c)" d="M 103.769 38.495 
L 103.769 43.595 
L 55.169 43.595 
L 55.169 38.495 
z
" style="stroke:#000000;stroke-linejoin:miter;stroke-width:1.5;"/>
   </g>
   <g id="patch_40">
    <path clip-path="url(#pe281d7dd1c)" d="M 49.769 56.345 
L 49.769 25.745 
L 44.369 25.745 
L 44.369 56.345 
z
" style="stroke:#000000;stroke-linejoin:miter;stroke-width:1.5;"/>
   </g>
   <g id="patch_41">
    <path clip-path="url(#pe281d7dd1c)" d="M 531.449 104.795 
L 531.449 99.695 
L 580.049 99.695 
L 580.049 104.795 
z
" style="stroke:#000000;stroke-linejoin:miter;stroke-width:1.5;"/>
   </g>
   <g id="text_1">
    <!-- A -->
    <defs>
     <path d="M 34.1875 63.1875 
L 20.796875 26.90625 
L 47.609375 26.90625 
z
M 28.609375 72.90625 
L 39.796875 72.90625 
L 67.578125 0 
L 57.328125 0 
L 50.6875 18.703125 
L 17.828125 18.703125 
L 11.1875 0 
L 0.78125 0 
z
" id="DejaVuSans-41"/>
    </defs>
    <g transform="translate(478.9965 93.3075)scale(0.16 -0.16)">
     <use xlink:href="#DejaVuSans-41"/>
    </g>
   </g>
   <g id="text_2">
    <!-- B -->
    <defs>
     <path d="M 19.671875 34.8125 
L 19.671875 8.109375 
L 35.5 8.109375 
Q 43.453125 8.109375 47.28125 11.40625 
Q 51.125 14.703125 51.125 21.484375 
Q 51.125 28.328125 47.28125 31.5625 
Q 43.453125 34.8125 35.5 34.8125 
z
M 19.671875 64.796875 
L 19.671875 42.828125 
L 34.28125 42.828125 
Q 41.5 42.828125 45.03125 45.53125 
Q 48.578125 48.25 48.578125 53.8125 
Q 48.578125 59.328125 45.03125 62.0625 
Q 41.5 64.796875 34.28125 64.796875 
z
M 9.8125 72.90625 
L 35.015625 72.90625 
Q 46.296875 72.90625 52.390625 68.21875 
Q 58.5 63.53125 58.5 54.890625 
Q 58.5 48.1875 55.375 44.234375 
Q 52.25 40.28125 46.1875 39.3125 
Q 53.46875 37.75 57.5 32.78125 
Q 61.53125 27.828125 61.53125 20.40625 
Q 61.53125 10.640625 54.890625 5.3125 
Q 48.25 0 35.984375 0 
L 9.8125 0 
z
" id="DejaVuSans-42"/>
    </defs>
    <g transform="translate(422.28025 95.8575)scale(0.16 -0.16)">
     <use xlink:href="#DejaVuSans-42"/>
    </g>
   </g>
   <g id="text_3">
    <!-- C -->
    <defs>
     <path d="M 64.40625 67.28125 
L 64.40625 56.890625 
Q 59.421875 61.53125 53.78125 63.8125 
Q 48.140625 66.109375 41.796875 66.109375 
Q 29.296875 66.109375 22.65625 58.46875 
Q 16.015625 50.828125 16.015625 36.375 
Q 16.015625 21.96875 22.65625 14.328125 
Q 29.296875 6.6875 41.796875 6.6875 
Q 48.140625 6.6875 53.78125 8.984375 
Q 59.421875 11.28125 64.40625 15.921875 
L 64.40625 5.609375 
Q 59.234375 2.09375 53.4375 0.328125 
Q 47.65625 -1.421875 41.21875 -1.421875 
Q 24.65625 -1.421875 15.125 8.703125 
Q 5.609375 18.84375 5.609375 36.375 
Q 5.609375 53.953125 15.125 64.078125 
Q 24.65625 74.21875 41.21875 74.21875 
Q 47.75 74.21875 53.53125 72.484375 
Q 59.328125 70.75 64.40625 67.28125 
" id="DejaVuSans-43"/>
    </defs>
    <g transform="translate(373.58275 88.2075)scale(0.16 -0.16)">
     <use xlink:href="#DejaVuSans-43"/>
    </g>
   </g>
   <g id="text_4">
    <!-- D -->
    <defs>
     <path d="M 19.671875 64.796875 
L 19.671875 8.109375 
L 31.59375 8.109375 
Q 46.6875 8.109375 53.6875 14.9375 
Q 60.6875 21.78125 60.6875 36.53125 
Q 60.6875 51.171875 53.6875 57.984375 
Q 46.6875 64.796875 31.59375 64.796875 
z
M 9.8125 72.90625 
L 30.078125 72.90625 
Q 51.265625 72.90625 61.171875 64.09375 
Q 71.09375 55.28125 71.09375 36.53125 
Q 71.09375 17.671875 61.125 8.828125 
Q 51.171875 0 30.078125 0 
L 9.8125 0 
z
" id="DejaVuSans-44"/>
    </defs>
    <g transform="translate(324.409 88.2075)scale(0.16 -0.16)">
     <use xlink:href="#DejaVuSans-44"/>
    </g>
   </g>
   <g id="text_5">
    <!-- E -->
    <defs>
     <path d="M 9.8125 72.90625 
L 55.90625 72.90625 
L 55.90625 64.59375 
L 19.671875 64.59375 
L 19.671875 43.015625 
L 54.390625 43.015625 
L 54.390625 34.71875 
L 19.671875 34.71875 
L 19.671875 8.296875 
L 56.78125 8.296875 
L 56.78125 0 
L 9.8125 0 
z
" id="DejaVuSans-45"/>
    </defs>
    <g transform="translate(276.914 88.2075)scale(0.16 -0.16)">
     <use xlink:href="#DejaVuSans-45"/>
    </g>
   </g>
   <g id="text_6">
    <!-- D -->
    <g transform="translate(227.209 88.2075)scale(0.16 -0.16)">
     <use xlink:href="#DejaVuSans-44"/>
    </g>
   </g>
   <g id="text_7">
    <!-- C -->
    <g transform="translate(179.18275 88.2075)scale(0.16 -0.16)">
     <use xlink:href="#DejaVuSans-43"/>
    </g>
   </g>
   <g id="text_8">
    <!-- B -->
    <g transform="translate(130.68025 95.8575)scale(0.16 -0.16)">
     <use xlink:href="#DejaVuSans-42"/>
    </g>
   </g>
   <g id="text_9">
    <!-- A -->
    <g transform="translate(73.9965 93.3075)scale(0.16 -0.16)">
     <use xlink:href="#DejaVuSans-41"/>
    </g>
   </g>
   <g id="text_10">
    <!-- G -->
    <defs>
     <path d="M 59.515625 10.40625 
L 59.515625 29.984375 
L 43.40625 29.984375 
L 43.40625 38.09375 
L 69.28125 38.09375 
L 69.28125 6.78125 
Q 63.578125 2.734375 56.6875 0.65625 
Q 49.8125 -1.421875 42 -1.421875 
Q 24.90625 -1.421875 15.25 8.5625 
Q 5.609375 18.5625 5.609375 36.375 
Q 5.609375 54.25 15.25 64.234375 
Q 24.90625 74.21875 42 74.21875 
Q 49.125 74.21875 55.546875 72.453125 
Q 61.96875 70.703125 67.390625 67.28125 
L 67.390625 56.78125 
Q 61.921875 61.421875 55.765625 63.765625 
Q 49.609375 66.109375 42.828125 66.109375 
Q 29.4375 66.109375 22.71875 58.640625 
Q 16.015625 51.171875 16.015625 36.375 
Q 16.015625 21.625 22.71875 14.15625 
Q 29.4375 6.6875 42.828125 6.6875 
Q 48.046875 6.6875 52.140625 7.59375 
Q 56.25 8.5 59.515625 10.40625 
" id="DejaVuSans-47"/>
    </defs>
    <g transform="translate(40.87025 80.5575)scale(0.16 -0.16)">
     <use xlink:href="#DejaVuSans-47"/>
    </g>
   </g>
   <g id="text_11">
    <!-- A -->
    <g transform="translate(478.9965 32.1075)scale(0.16 -0.16)">
     <use xlink:href="#DejaVuSans-41"/>
    </g>
   </g>
   <g id="text_12">
    <!-- B -->
    <g transform="translate(422.28025 34.6575)scale(0.16 -0.16)">
     <use xlink:href="#DejaVuSans-42"/>
    </g>
   </g>
   <g id="text_13">
    <!-- C -->
    <g transform="translate(373.58275 27.0075)scale(0.16 -0.16)">
     <use xlink:href="#DejaVuSans-43"/>
    </g>
   </g>
   <g id="text_14">
    <!-- D -->
    <g transform="translate(324.409 27.0075)scale(0.16 -0.16)">
     <use xlink:href="#DejaVuSans-44"/>
    </g>
   </g>
   <g id="text_15">
    <!-- E -->
    <g transform="translate(276.914 27.0075)scale(0.16 -0.16)">
     <use xlink:href="#DejaVuSans-45"/>
    </g>
   </g>
   <g id="text_16">
    <!-- D -->
    <g transform="translate(227.209 27.0075)scale(0.16 -0.16)">
     <use xlink:href="#DejaVuSans-44"/>
    </g>
   </g>
   <g id="text_17">
    <!-- C -->
    <g transform="translate(179.18275 27.0075)scale(0.16 -0.16)">
     <use xlink:href="#DejaVuSans-43"/>
    </g>
   </g>
   <g id="text_18">
    <!-- B -->
    <g transform="translate(130.68025 34.6575)scale(0.16 -0.16)">
     <use xlink:href="#DejaVuSans-42"/>
    </g>
   </g>
   <g id="text_19">
    <!-- A -->
    <g transform="translate(73.9965 32.1075)scale(0.16 -0.16)">
     <use xlink:href="#DejaVuSans-41"/>
    </g>
   </g>
   <g id="text_20">
    <!-- G -->
    <g transform="translate(40.87025 19.3575)scale(0.16 -0.16)">
     <use xlink:href="#DejaVuSans-47"/>
    </g>
   </g>
   <g id="text_21">
    <!-- A -->
    <g transform="translate(550.2765 93.3075)scale(0.16 -0.16)">
     <use xlink:href="#DejaVuSans-41"/>
    </g>
   </g>
   <g id="text_22">
    <!-- F -->
    <defs>
     <path d="M 9.8125 72.90625 
L 51.703125 72.90625 
L 51.703125 64.59375 
L 19.671875 64.59375 
L 19.671875 43.109375 
L 48.578125 43.109375 
L 48.578125 34.8125 
L 19.671875 34.8125 
L 19.671875 0 
L 9.8125 0 
z
" id="DejaVuSans-46"/>
    </defs>
    <g transform="translate(615.94775 88.2075)scale(0.16 -0.16)">
     <use xlink:href="#DejaVuSans-46"/>
    </g>
   </g>
  </g>
 </g>
 <defs>
  <clipPath id="pe281d7dd1c">
   <rect height="107.1" width="675.918" x="10.7" y="18.095"/>
  </clipPath>
 </defs>
</svg>
