<?xml version="1.0" encoding="utf-8" standalone="no"?>
<!DOCTYPE svg PUBLIC "-//W3C//DTD SVG 1.1//EN"
  "http://www.w3.org/Graphics/SVG/1.1/DTD/svg11.dtd">
<!-- Created with matplotlib (http://matplotlib.org/) -->
<svg height="235pt" version="1.1" viewBox="0 0 697 235" width="697pt" xmlns="http://www.w3.org/2000/svg" xmlns:xlink="http://www.w3.org/1999/xlink">
 <defs>
  <style type="text/css">
*{stroke-linecap:butt;stroke-linejoin:round;}
  </style>
 </defs>
 <g id="figure_1">
  <g id="patch_1">
   <path d="M -0 235.09 
L 697.318 235.09 
L 697.318 0 
L -0 0 
z
" style="fill:none;"/>
  </g>
  <g id="axes_1">
   <g id="patch_2">
    <path clip-path="url(#pe5060b7a29)" d="M 387.269 186.395 
C 387.269 187.409064 387.695986 188.382632 388.455218 189.099683 
C 389.214449 189.816735 390.245285 190.22 391.319 190.22 
C 392.392715 190.22 393.423551 189.816735 394.182782 189.099683 
C 394.942014 188.382632 395.369 187.409064 395.369 186.395 
" style="fill:none;stroke:#000000;stroke-linejoin:miter;stroke-width:1.5;"/>
   </g>
   <g id="patch_3">
    <path clip-path="url(#pe5060b7a29)" d="M 379.169 186.395 
C 379.169 187.409064 379.595986 188.382632 380.355218 189.099683 
C 381.114449 189.816735 382.145285 190.22 383.219 190.22 
C 384.292715 190.22 385.323551 189.816735 386.082782 189.099683 
C 386.842014 188.382632 387.269 187.409064 387.269 186.395 
" style="fill:none;stroke:#000000;stroke-linejoin:miter;stroke-width:1.5;"/>
   </g>
   <g id="patch_4">
    <path clip-path="url(#pe5060b7a29)" d="M 371.069 186.395 
C 371.069 187.409064 371.495986 188.382632 372.255218 189.099683 
C 373.014449 189.816735 374.045285 190.22 375.119 190.22 
C 376.192715 190.22 377.223551 189.816735 377.982782 189.099683 
C 378.742014 188.382632 379.169 187.409064 379.169 186.395 
" style="fill:none;stroke:#000000;stroke-linejoin:miter;stroke-width:1.5;"/>
   </g>
   <g id="patch_5">
    <path clip-path="url(#pe5060b7a29)" d="M 362.969 186.395 
C 362.969 187.409064 363.395986 188.382632 364.155218 189.099683 
C 364.914449 189.816735 365.945285 190.22 367.019 190.22 
C 368.092715 190.22 369.123551 189.816735 369.882782 189.099683 
C 370.642014 188.382632 371.069 187.409064 371.069 186.395 
" style="fill:none;stroke:#000000;stroke-linejoin:miter;stroke-width:1.5;"/>
   </g>
   <g id="patch_6">
    <path clip-path="url(#pe5060b7a29)" d="M 338.669 186.395 
C 338.669 187.409064 339.095986 188.382632 339.855218 189.099683 
C 340.614449 189.816735 341.645285 190.22 342.719 190.22 
C 343.792715 190.22 344.823551 189.816735 345.582782 189.099683 
C 346.342014 188.382632 346.769 187.409064 346.769 186.395 
" style="fill:none;stroke:#000000;stroke-linejoin:miter;stroke-width:1.5;"/>
   </g>
   <g id="patch_7">
    <path clip-path="url(#pe5060b7a29)" d="M 330.569 186.395 
C 330.569 187.409064 330.995986 188.382632 331.755218 189.099683 
C 332.514449 189.816735 333.545285 190.22 334.619 190.22 
C 335.692715 190.22 336.723551 189.816735 337.482782 189.099683 
C 338.242014 188.382632 338.669 187.409064 338.669 186.395 
" style="fill:none;stroke:#000000;stroke-linejoin:miter;stroke-width:1.5;"/>
   </g>
   <g id="patch_8">
    <path clip-path="url(#pe5060b7a29)" d="M 322.469 186.395 
C 322.469 187.409064 322.895986 188.382632 323.655218 189.099683 
C 324.414449 189.816735 325.445285 190.22 326.519 190.22 
C 327.592715 190.22 328.623551 189.816735 329.382782 189.099683 
C 330.142014 188.382632 330.569 187.409064 330.569 186.395 
" style="fill:none;stroke:#000000;stroke-linejoin:miter;stroke-width:1.5;"/>
   </g>
   <g id="patch_9">
    <path clip-path="url(#pe5060b7a29)" d="M 314.369 186.395 
C 314.369 187.409064 314.795986 188.382632 315.555218 189.099683 
C 316.314449 189.816735 317.345285 190.22 318.419 190.22 
C 319.492715 190.22 320.523551 189.816735 321.282782 189.099683 
C 322.042014 188.382632 322.469 187.409064 322.469 186.395 
" style="fill:none;stroke:#000000;stroke-linejoin:miter;stroke-width:1.5;"/>
   </g>
   <g id="patch_10">
    <path clip-path="url(#pe5060b7a29)" d="M 241.469 186.395 
C 241.469 187.409064 241.895986 188.382632 242.655218 189.099683 
C 243.414449 189.816735 244.445285 190.22 245.519 190.22 
C 246.592715 190.22 247.623551 189.816735 248.382782 189.099683 
C 249.142014 188.382632 249.569 187.409064 249.569 186.395 
" style="fill:none;stroke:#000000;stroke-linejoin:miter;stroke-width:1.5;"/>
   </g>
   <g id="patch_11">
    <path clip-path="url(#pe5060b7a29)" d="M 233.369 186.395 
C 233.369 187.409064 233.795986 188.382632 234.555218 189.099683 
C 235.314449 189.816735 236.345285 190.22 237.419 190.22 
C 238.492715 190.22 239.523551 189.816735 240.282782 189.099683 
C 241.042014 188.382632 241.469 187.409064 241.469 186.395 
" style="fill:none;stroke:#000000;stroke-linejoin:miter;stroke-width:1.5;"/>
   </g>
   <g id="patch_12">
    <path clip-path="url(#pe5060b7a29)" d="M 225.269 186.395 
C 225.269 187.409064 225.695986 188.382632 226.455218 189.099683 
C 227.214449 189.816735 228.245285 190.22 229.319 190.22 
C 230.392715 190.22 231.423551 189.816735 232.182782 189.099683 
C 232.942014 188.382632 233.369 187.409064 233.369 186.395 
" style="fill:none;stroke:#000000;stroke-linejoin:miter;stroke-width:1.5;"/>
   </g>
   <g id="patch_13">
    <path clip-path="url(#pe5060b7a29)" d="M 217.169 186.395 
C 217.169 187.409064 217.595986 188.382632 218.355218 189.099683 
C 219.114449 189.816735 220.145285 190.22 221.219 190.22 
C 222.292715 190.22 223.323551 189.816735 224.082782 189.099683 
C 224.842014 188.382632 225.269 187.409064 225.269 186.395 
" style="fill:none;stroke:#000000;stroke-linejoin:miter;stroke-width:1.5;"/>
   </g>
   <g id="patch_14">
    <path clip-path="url(#pe5060b7a29)" d="M 192.869 186.395 
C 192.869 187.409064 193.295986 188.382632 194.055218 189.099683 
C 194.814449 189.816735 195.845285 190.22 196.919 190.22 
C 197.992715 190.22 199.023551 189.816735 199.782782 189.099683 
C 200.542014 188.382632 200.969 187.409064 200.969 186.395 
" style="fill:none;stroke:#000000;stroke-linejoin:miter;stroke-width:1.5;"/>
   </g>
   <g id="patch_15">
    <path clip-path="url(#pe5060b7a29)" d="M 184.769 186.395 
C 184.769 187.409064 185.195986 188.382632 185.955218 189.099683 
C 186.714449 189.816735 187.745285 190.22 188.819 190.22 
C 189.892715 190.22 190.923551 189.816735 191.682782 189.099683 
C 192.442014 188.382632 192.869 187.409064 192.869 186.395 
" style="fill:none;stroke:#000000;stroke-linejoin:miter;stroke-width:1.5;"/>
   </g>
   <g id="patch_16">
    <path clip-path="url(#pe5060b7a29)" d="M 176.669 186.395 
C 176.669 187.409064 177.095986 188.382632 177.855218 189.099683 
C 178.614449 189.816735 179.645285 190.22 180.719 190.22 
C 181.792715 190.22 182.823551 189.816735 183.582782 189.099683 
C 184.342014 188.382632 184.769 187.409064 184.769 186.395 
" style="fill:none;stroke:#000000;stroke-linejoin:miter;stroke-width:1.5;"/>
   </g>
   <g id="patch_17">
    <path clip-path="url(#pe5060b7a29)" d="M 168.569 186.395 
C 168.569 187.409064 168.995986 188.382632 169.755218 189.099683 
C 170.514449 189.816735 171.545285 190.22 172.619 190.22 
C 173.692715 190.22 174.723551 189.816735 175.482782 189.099683 
C 176.242014 188.382632 176.669 187.409064 176.669 186.395 
" style="fill:none;stroke:#000000;stroke-linejoin:miter;stroke-width:1.5;"/>
   </g>
   <g id="patch_18">
    <path clip-path="url(#pe5060b7a29)" d="M 387.269 48.695 
C 387.269 49.709064 387.695986 50.682632 388.455218 51.399683 
C 389.214449 52.116735 390.245285 52.52 391.319 52.52 
C 392.392715 52.52 393.423551 52.116735 394.182782 51.399683 
C 394.942014 50.682632 395.369 49.709064 395.369 48.695 
" style="fill:none;stroke:#000000;stroke-linejoin:miter;stroke-width:1.5;"/>
   </g>
   <g id="patch_19">
    <path clip-path="url(#pe5060b7a29)" d="M 379.169 48.695 
C 379.169 49.709064 379.595986 50.682632 380.355218 51.399683 
C 381.114449 52.116735 382.145285 52.52 383.219 52.52 
C 384.292715 52.52 385.323551 52.116735 386.082782 51.399683 
C 386.842014 50.682632 387.269 49.709064 387.269 48.695 
" style="fill:none;stroke:#000000;stroke-linejoin:miter;stroke-width:1.5;"/>
   </g>
   <g id="patch_20">
    <path clip-path="url(#pe5060b7a29)" d="M 371.069 48.695 
C 371.069 49.709064 371.495986 50.682632 372.255218 51.399683 
C 373.014449 52.116735 374.045285 52.52 375.119 52.52 
C 376.192715 52.52 377.223551 52.116735 377.982782 51.399683 
C 378.742014 50.682632 379.169 49.709064 379.169 48.695 
" style="fill:none;stroke:#000000;stroke-linejoin:miter;stroke-width:1.5;"/>
   </g>
   <g id="patch_21">
    <path clip-path="url(#pe5060b7a29)" d="M 362.969 48.695 
C 362.969 49.709064 363.395986 50.682632 364.155218 51.399683 
C 364.914449 52.116735 365.945285 52.52 367.019 52.52 
C 368.092715 52.52 369.123551 52.116735 369.882782 51.399683 
C 370.642014 50.682632 371.069 49.709064 371.069 48.695 
" style="fill:none;stroke:#000000;stroke-linejoin:miter;stroke-width:1.5;"/>
   </g>
   <g id="patch_22">
    <path clip-path="url(#pe5060b7a29)" d="M 338.669 48.695 
C 338.669 49.709064 339.095986 50.682632 339.855218 51.399683 
C 340.614449 52.116735 341.645285 52.52 342.719 52.52 
C 343.792715 52.52 344.823551 52.116735 345.582782 51.399683 
C 346.342014 50.682632 346.769 49.709064 346.769 48.695 
" style="fill:none;stroke:#000000;stroke-linejoin:miter;stroke-width:1.5;"/>
   </g>
   <g id="patch_23">
    <path clip-path="url(#pe5060b7a29)" d="M 330.569 48.695 
C 330.569 49.709064 330.995986 50.682632 331.755218 51.399683 
C 332.514449 52.116735 333.545285 52.52 334.619 52.52 
C 335.692715 52.52 336.723551 52.116735 337.482782 51.399683 
C 338.242014 50.682632 338.669 49.709064 338.669 48.695 
" style="fill:none;stroke:#000000;stroke-linejoin:miter;stroke-width:1.5;"/>
   </g>
   <g id="patch_24">
    <path clip-path="url(#pe5060b7a29)" d="M 322.469 48.695 
C 322.469 49.709064 322.895986 50.682632 323.655218 51.399683 
C 324.414449 52.116735 325.445285 52.52 326.519 52.52 
C 327.592715 52.52 328.623551 52.116735 329.382782 51.399683 
C 330.142014 50.682632 330.569 49.709064 330.569 48.695 
" style="fill:none;stroke:#000000;stroke-linejoin:miter;stroke-width:1.5;"/>
   </g>
   <g id="patch_25">
    <path clip-path="url(#pe5060b7a29)" d="M 314.369 48.695 
C 314.369 49.709064 314.795986 50.682632 315.555218 51.399683 
C 316.314449 52.116735 317.345285 52.52 318.419 52.52 
C 319.492715 52.52 320.523551 52.116735 321.282782 51.399683 
C 322.042014 50.682632 322.469 49.709064 322.469 48.695 
" style="fill:none;stroke:#000000;stroke-linejoin:miter;stroke-width:1.5;"/>
   </g>
   <g id="patch_26">
    <path clip-path="url(#pe5060b7a29)" d="M 241.469 48.695 
C 241.469 49.709064 241.895986 50.682632 242.655218 51.399683 
C 243.414449 52.116735 244.445285 52.52 245.519 52.52 
C 246.592715 52.52 247.623551 52.116735 248.382782 51.399683 
C 249.142014 50.682632 249.569 49.709064 249.569 48.695 
" style="fill:none;stroke:#000000;stroke-linejoin:miter;stroke-width:1.5;"/>
   </g>
   <g id="patch_27">
    <path clip-path="url(#pe5060b7a29)" d="M 233.369 48.695 
C 233.369 49.709064 233.795986 50.682632 234.555218 51.399683 
C 235.314449 52.116735 236.345285 52.52 237.419 52.52 
C 238.492715 52.52 239.523551 52.116735 240.282782 51.399683 
C 241.042014 50.682632 241.469 49.709064 241.469 48.695 
" style="fill:none;stroke:#000000;stroke-linejoin:miter;stroke-width:1.5;"/>
   </g>
   <g id="patch_28">
    <path clip-path="url(#pe5060b7a29)" d="M 225.269 48.695 
C 225.269 49.709064 225.695986 50.682632 226.455218 51.399683 
C 227.214449 52.116735 228.245285 52.52 229.319 52.52 
C 230.392715 52.52 231.423551 52.116735 232.182782 51.399683 
C 232.942014 50.682632 233.369 49.709064 233.369 48.695 
" style="fill:none;stroke:#000000;stroke-linejoin:miter;stroke-width:1.5;"/>
   </g>
   <g id="patch_29">
    <path clip-path="url(#pe5060b7a29)" d="M 217.169 48.695 
C 217.169 49.709064 217.595986 50.682632 218.355218 51.399683 
C 219.114449 52.116735 220.145285 52.52 221.219 52.52 
C 222.292715 52.52 223.323551 52.116735 224.082782 51.399683 
C 224.842014 50.682632 225.269 49.709064 225.269 48.695 
" style="fill:none;stroke:#000000;stroke-linejoin:miter;stroke-width:1.5;"/>
   </g>
   <g id="patch_30">
    <path clip-path="url(#pe5060b7a29)" d="M 192.869 48.695 
C 192.869 49.709064 193.295986 50.682632 194.055218 51.399683 
C 194.814449 52.116735 195.845285 52.52 196.919 52.52 
C 197.992715 52.52 199.023551 52.116735 199.782782 51.399683 
C 200.542014 50.682632 200.969 49.709064 200.969 48.695 
" style="fill:none;stroke:#000000;stroke-linejoin:miter;stroke-width:1.5;"/>
   </g>
   <g id="patch_31">
    <path clip-path="url(#pe5060b7a29)" d="M 184.769 48.695 
C 184.769 49.709064 185.195986 50.682632 185.955218 51.399683 
C 186.714449 52.116735 187.745285 52.52 188.819 52.52 
C 189.892715 52.52 190.923551 52.116735 191.682782 51.399683 
C 192.442014 50.682632 192.869 49.709064 192.869 48.695 
" style="fill:none;stroke:#000000;stroke-linejoin:miter;stroke-width:1.5;"/>
   </g>
   <g id="patch_32">
    <path clip-path="url(#pe5060b7a29)" d="M 176.669 48.695 
C 176.669 49.709064 177.095986 50.682632 177.855218 51.399683 
C 178.614449 52.116735 179.645285 52.52 180.719 52.52 
C 181.792715 52.52 182.823551 52.116735 183.582782 51.399683 
C 184.342014 50.682632 184.769 49.709064 184.769 48.695 
" style="fill:none;stroke:#000000;stroke-linejoin:miter;stroke-width:1.5;"/>
   </g>
   <g id="patch_33">
    <path clip-path="url(#pe5060b7a29)" d="M 168.569 48.695 
C 168.569 49.709064 168.995986 50.682632 169.755218 51.399683 
C 170.514449 52.116735 171.545285 52.52 172.619 52.52 
C 173.692715 52.52 174.723551 52.116735 175.482782 51.399683 
C 176.242014 50.682632 176.669 49.709064 176.669 48.695 
" style="fill:none;stroke:#000000;stroke-linejoin:miter;stroke-width:1.5;"/>
   </g>
   <g id="line2d_1">
    <path clip-path="url(#pe5060b7a29)" d="M 520.109 186.395 
" style="fill:none;stroke:#000000;stroke-linecap:round;stroke-width:1.5;"/>
   </g>
   <g id="line2d_2">
    <path clip-path="url(#pe5060b7a29)" d="M 520.109 186.395 
L 520.109 117.545 
L 520.109 48.695 
" style="fill:none;stroke:#000000;stroke-linecap:round;stroke-width:1.5;"/>
   </g>
   <g id="line2d_3">
    <path clip-path="url(#pe5060b7a29)" d="M 520.109 186.395 
L 518.489 186.395 
L 516.869 186.395 
" style="fill:none;stroke:#000000;stroke-linecap:round;stroke-width:1.5;"/>
   </g>
   <g id="line2d_4">
    <path clip-path="url(#pe5060b7a29)" d="M 516.869 186.395 
L 484.469 186.395 
M 484.469 186.395 
L 452.069 186.395 
" style="fill:none;stroke:#000000;stroke-linecap:round;stroke-width:1.5;"/>
   </g>
   <g id="line2d_5">
    <path clip-path="url(#pe5060b7a29)" d="M 452.069 186.395 
L 443.969 186.395 
M 443.969 186.395 
L 418.049 200.165 
M 411.569 186.395 
L 403.469 186.395 
" style="fill:none;stroke:#000000;stroke-linecap:round;stroke-width:1.5;"/>
   </g>
   <g id="line2d_6">
    <path clip-path="url(#pe5060b7a29)" d="M 403.469 186.395 
L 395.369 186.395 
M 362.969 186.395 
L 354.869 186.395 
" style="fill:none;stroke:#000000;stroke-linecap:round;stroke-width:1.5;"/>
   </g>
   <g id="line2d_7">
    <path clip-path="url(#pe5060b7a29)" d="M 354.869 186.395 
L 346.769 186.395 
M 314.369 186.395 
L 306.269 186.395 
" style="fill:none;stroke:#000000;stroke-linecap:round;stroke-width:1.5;"/>
   </g>
   <g id="line2d_8">
    <path clip-path="url(#pe5060b7a29)" d="M 306.269 186.395 
L 290.069 186.395 
L 290.069 194.045 
L 273.869 194.045 
L 273.869 178.745 
L 290.069 178.745 
L 290.069 186.395 
M 273.869 186.395 
L 257.669 186.395 
" style="fill:none;stroke:#000000;stroke-linecap:round;stroke-width:1.5;"/>
   </g>
   <g id="line2d_9">
    <path clip-path="url(#pe5060b7a29)" d="M 257.669 186.395 
L 249.569 186.395 
M 217.169 186.395 
L 209.069 186.395 
" style="fill:none;stroke:#000000;stroke-linecap:round;stroke-width:1.5;"/>
   </g>
   <g id="line2d_10">
    <path clip-path="url(#pe5060b7a29)" d="M 209.069 186.395 
L 200.969 186.395 
M 168.569 186.395 
L 160.469 186.395 
" style="fill:none;stroke:#000000;stroke-linecap:round;stroke-width:1.5;"/>
   </g>
   <g id="line2d_11">
    <path clip-path="url(#pe5060b7a29)" d="M 160.469 186.395 
L 152.369 186.395 
M 152.369 186.395 
L 126.449 200.165 
M 119.969 186.395 
L 111.869 186.395 
" style="fill:none;stroke:#000000;stroke-linecap:round;stroke-width:1.5;"/>
   </g>
   <g id="line2d_12">
    <path clip-path="url(#pe5060b7a29)" d="M 111.869 186.395 
L 79.469 186.395 
M 79.469 186.395 
L 47.069 186.395 
" style="fill:none;stroke:#000000;stroke-linecap:round;stroke-width:1.5;"/>
   </g>
   <g id="line2d_13">
    <path clip-path="url(#pe5060b7a29)" d="M 520.109 48.695 
L 518.489 48.695 
L 516.869 48.695 
" style="fill:none;stroke:#000000;stroke-linecap:round;stroke-width:1.5;"/>
   </g>
   <g id="line2d_14">
    <path clip-path="url(#pe5060b7a29)" d="M 516.869 48.695 
L 484.469 48.695 
M 484.469 48.695 
L 452.069 48.695 
" style="fill:none;stroke:#000000;stroke-linecap:round;stroke-width:1.5;"/>
   </g>
   <g id="line2d_15">
    <path clip-path="url(#pe5060b7a29)" d="M 452.069 48.695 
L 443.969 48.695 
M 443.969 48.695 
L 418.049 62.465 
M 411.569 48.695 
L 403.469 48.695 
" style="fill:none;stroke:#000000;stroke-linecap:round;stroke-width:1.5;"/>
   </g>
   <g id="line2d_16">
    <path clip-path="url(#pe5060b7a29)" d="M 403.469 48.695 
L 395.369 48.695 
M 362.969 48.695 
L 354.869 48.695 
" style="fill:none;stroke:#000000;stroke-linecap:round;stroke-width:1.5;"/>
   </g>
   <g id="line2d_17">
    <path clip-path="url(#pe5060b7a29)" d="M 354.869 48.695 
L 346.769 48.695 
M 314.369 48.695 
L 306.269 48.695 
" style="fill:none;stroke:#000000;stroke-linecap:round;stroke-width:1.5;"/>
   </g>
   <g id="line2d_18">
    <path clip-path="url(#pe5060b7a29)" d="M 306.269 48.695 
L 290.069 48.695 
L 290.069 56.345 
L 273.869 56.345 
L 273.869 41.045 
L 290.069 41.045 
L 290.069 48.695 
M 273.869 48.695 
L 257.669 48.695 
" style="fill:none;stroke:#000000;stroke-linecap:round;stroke-width:1.5;"/>
   </g>
   <g id="line2d_19">
    <path clip-path="url(#pe5060b7a29)" d="M 257.669 48.695 
L 249.569 48.695 
M 217.169 48.695 
L 209.069 48.695 
" style="fill:none;stroke:#000000;stroke-linecap:round;stroke-width:1.5;"/>
   </g>
   <g id="line2d_20">
    <path clip-path="url(#pe5060b7a29)" d="M 209.069 48.695 
L 200.969 48.695 
M 168.569 48.695 
L 160.469 48.695 
" style="fill:none;stroke:#000000;stroke-linecap:round;stroke-width:1.5;"/>
   </g>
   <g id="line2d_21">
    <path clip-path="url(#pe5060b7a29)" d="M 160.469 48.695 
L 152.369 48.695 
M 152.369 48.695 
L 126.449 62.465 
M 119.969 48.695 
L 111.869 48.695 
" style="fill:none;stroke:#000000;stroke-linecap:round;stroke-width:1.5;"/>
   </g>
   <g id="line2d_22">
    <path clip-path="url(#pe5060b7a29)" d="M 111.869 48.695 
L 79.469 48.695 
M 79.469 48.695 
L 47.069 48.695 
" style="fill:none;stroke:#000000;stroke-linecap:round;stroke-width:1.5;"/>
   </g>
   <g id="line2d_23">
    <path clip-path="url(#pe5060b7a29)" d="M 520.109 186.395 
L 521.729 186.395 
L 523.349 186.395 
" style="fill:none;stroke:#000000;stroke-linecap:round;stroke-width:1.5;"/>
   </g>
   <g id="line2d_24">
    <path clip-path="url(#pe5060b7a29)" d="M 523.349 186.395 
L 555.749 186.395 
M 555.749 186.395 
L 588.149 186.395 
" style="fill:none;stroke:#000000;stroke-linecap:round;stroke-width:1.5;"/>
   </g>
   <g id="line2d_25">
    <path clip-path="url(#pe5060b7a29)" d="M 588.149 186.395 
L 604.349 186.395 
L 604.349 178.745 
L 636.749 178.745 
L 636.749 194.045 
L 604.349 194.045 
L 604.349 186.395 
M 636.749 186.395 
L 652.949 186.395 
" style="fill:none;stroke:#000000;stroke-linecap:round;stroke-width:1.5;"/>
   </g>
   <g id="patch_34">
    <path clip-path="url(#pe5060b7a29)" d="M 520.109 188.69 
C 520.753444 188.69 521.371579 188.448184 521.827269 188.01781 
C 522.28296 187.587436 522.539 187.003641 522.539 186.395 
C 522.539 185.786359 522.28296 185.202564 521.827269 184.77219 
C 521.371579 184.341816 520.753444 184.1 520.109 184.1 
C 519.464556 184.1 518.846421 184.341816 518.390731 184.77219 
C 517.93504 185.202564 517.679 185.786359 517.679 186.395 
C 517.679 187.003641 517.93504 187.587436 518.390731 188.01781 
C 518.846421 188.448184 519.464556 188.69 520.109 188.69 
z
" style="stroke:#000000;stroke-linejoin:miter;stroke-width:1.5;"/>
   </g>
   <g id="patch_35">
    <path clip-path="url(#pe5060b7a29)" d="M 500.669 183.845 
L 500.669 188.945 
L 468.269 188.945 
L 468.269 183.845 
z
" style="stroke:#000000;stroke-linejoin:miter;stroke-width:1.5;"/>
   </g>
   <g id="patch_36">
    <path clip-path="url(#pe5060b7a29)" d="M 95.669 183.845 
L 95.669 188.945 
L 63.269 188.945 
L 63.269 183.845 
z
" style="stroke:#000000;stroke-linejoin:miter;stroke-width:1.5;"/>
   </g>
   <g id="patch_37">
    <path clip-path="url(#pe5060b7a29)" d="M 49.769 209.345 
L 49.769 163.445 
L 44.369 163.445 
L 44.369 209.345 
z
" style="stroke:#000000;stroke-linejoin:miter;stroke-width:1.5;"/>
   </g>
   <g id="patch_38">
    <path clip-path="url(#pe5060b7a29)" d="M 500.669 46.145 
L 500.669 51.245 
L 468.269 51.245 
L 468.269 46.145 
z
" style="stroke:#000000;stroke-linejoin:miter;stroke-width:1.5;"/>
   </g>
   <g id="patch_39">
    <path clip-path="url(#pe5060b7a29)" d="M 95.669 46.145 
L 95.669 51.245 
L 63.269 51.245 
L 63.269 46.145 
z
" style="stroke:#000000;stroke-linejoin:miter;stroke-width:1.5;"/>
   </g>
   <g id="patch_40">
    <path clip-path="url(#pe5060b7a29)" d="M 49.769 71.645 
L 49.769 25.745 
L 44.369 25.745 
L 44.369 71.645 
z
" style="stroke:#000000;stroke-linejoin:miter;stroke-width:1.5;"/>
   </g>
   <g id="patch_41">
    <path clip-path="url(#pe5060b7a29)" d="M 539.549 188.945 
L 539.549 183.845 
L 571.949 183.845 
L 571.949 188.945 
z
" style="stroke:#000000;stroke-linejoin:miter;stroke-width:1.5;"/>
   </g>
   <g id="text_1">
    <!-- A -->
    <defs>
     <path d="M 34.1875 63.1875 
L 20.796875 26.90625 
L 47.609375 26.90625 
z
M 28.609375 72.90625 
L 39.796875 72.90625 
L 67.578125 0 
L 57.328125 0 
L 50.6875 18.703125 
L 17.828125 18.703125 
L 11.1875 0 
L 0.78125 0 
z
" id="DejaVuSans-41"/>
    </defs>
    <g transform="translate(478.9965 177.4575)scale(0.16 -0.16)">
     <use xlink:href="#DejaVuSans-41"/>
    </g>
   </g>
   <g id="text_2">
    <!-- 105 -->
    <defs>
     <path d="M 12.40625 8.296875 
L 28.515625 8.296875 
L 28.515625 63.921875 
L 10.984375 60.40625 
L 10.984375 69.390625 
L 28.421875 72.90625 
L 38.28125 72.90625 
L 38.28125 8.296875 
L 54.390625 8.296875 
L 54.390625 0 
L 12.40625 0 
z
" id="DejaVuSans-31"/>
     <path d="M 31.78125 66.40625 
Q 24.171875 66.40625 20.328125 58.90625 
Q 16.5 51.421875 16.5 36.375 
Q 16.5 21.390625 20.328125 13.890625 
Q 24.171875 6.390625 31.78125 6.390625 
Q 39.453125 6.390625 43.28125 13.890625 
Q 47.125 21.390625 47.125 36.375 
Q 47.125 51.421875 43.28125 58.90625 
Q 39.453125 66.40625 31.78125 66.40625 
M 31.78125 74.21875 
Q 44.046875 74.21875 50.515625 64.515625 
Q 56.984375 54.828125 56.984375 36.375 
Q 56.984375 17.96875 50.515625 8.265625 
Q 44.046875 -1.421875 31.78125 -1.421875 
Q 19.53125 -1.421875 13.0625 8.265625 
Q 6.59375 17.96875 6.59375 36.375 
Q 6.59375 54.828125 13.0625 64.515625 
Q 19.53125 74.21875 31.78125 74.21875 
" id="DejaVuSans-30"/>
     <path d="M 10.796875 72.90625 
L 49.515625 72.90625 
L 49.515625 64.59375 
L 19.828125 64.59375 
L 19.828125 46.734375 
Q 21.96875 47.46875 24.109375 47.828125 
Q 26.265625 48.1875 28.421875 48.1875 
Q 40.625 48.1875 47.75 41.5 
Q 54.890625 34.8125 54.890625 23.390625 
Q 54.890625 11.625 47.5625 5.09375 
Q 40.234375 -1.421875 26.90625 -1.421875 
Q 22.3125 -1.421875 17.546875 -0.640625 
Q 12.796875 0.140625 7.71875 1.703125 
L 7.71875 11.625 
Q 12.109375 9.234375 16.796875 8.0625 
Q 21.484375 6.890625 26.703125 6.890625 
Q 35.15625 6.890625 40.078125 11.328125 
Q 45.015625 15.765625 45.015625 23.390625 
Q 45.015625 31 40.078125 35.4375 
Q 35.15625 39.890625 26.703125 39.890625 
Q 22.75 39.890625 18.8125 39.015625 
Q 14.890625 38.140625 10.796875 36.28125 
z
" id="DejaVuSans-35"/>
    </defs>
    <g transform="translate(469.199 204.1625)scale(0.16 -0.16)">
     <use xlink:href="#DejaVuSans-31"/>
     <use x="63.623047" xlink:href="#DejaVuSans-30"/>
     <use x="127.246094" xlink:href="#DejaVuSans-35"/>
    </g>
   </g>
   <g id="text_3">
    <!-- B -->
    <defs>
     <path d="M 19.671875 34.8125 
L 19.671875 8.109375 
L 35.5 8.109375 
Q 43.453125 8.109375 47.28125 11.40625 
Q 51.125 14.703125 51.125 21.484375 
Q 51.125 28.328125 47.28125 31.5625 
Q 43.453125 34.8125 35.5 34.8125 
z
M 19.671875 64.796875 
L 19.671875 42.828125 
L 34.28125 42.828125 
Q 41.5 42.828125 45.03125 45.53125 
Q 48.578125 48.25 48.578125 53.8125 
Q 48.578125 59.328125 45.03125 62.0625 
Q 41.5 64.796875 34.28125 64.796875 
z
M 9.8125 72.90625 
L 35.015625 72.90625 
Q 46.296875 72.90625 52.390625 68.21875 
Q 58.5 63.53125 58.5 54.890625 
Q 58.5 48.1875 55.375 44.234375 
Q 52.25 40.28125 46.1875 39.3125 
Q 53.46875 37.75 57.5 32.78125 
Q 61.53125 27.828125 61.53125 20.40625 
Q 61.53125 10.640625 54.890625 5.3125 
Q 48.25 0 35.984375 0 
L 9.8125 0 
z
" id="DejaVuSans-42"/>
    </defs>
    <g transform="translate(422.28025 180.0075)scale(0.16 -0.16)">
     <use xlink:href="#DejaVuSans-42"/>
    </g>
   </g>
   <g id="text_4">
    <!-- 110 -->
    <g transform="translate(412.499 215.3825)scale(0.16 -0.16)">
     <use xlink:href="#DejaVuSans-31"/>
     <use x="63.623047" xlink:href="#DejaVuSans-31"/>
     <use x="127.246094" xlink:href="#DejaVuSans-30"/>
    </g>
   </g>
   <g id="text_5">
    <!-- C -->
    <defs>
     <path d="M 64.40625 67.28125 
L 64.40625 56.890625 
Q 59.421875 61.53125 53.78125 63.8125 
Q 48.140625 66.109375 41.796875 66.109375 
Q 29.296875 66.109375 22.65625 58.46875 
Q 16.015625 50.828125 16.015625 36.375 
Q 16.015625 21.96875 22.65625 14.328125 
Q 29.296875 6.6875 41.796875 6.6875 
Q 48.140625 6.6875 53.78125 8.984375 
Q 59.421875 11.28125 64.40625 15.921875 
L 64.40625 5.609375 
Q 59.234375 2.09375 53.4375 0.328125 
Q 47.65625 -1.421875 41.21875 -1.421875 
Q 24.65625 -1.421875 15.125 8.703125 
Q 5.609375 18.84375 5.609375 36.375 
Q 5.609375 53.953125 15.125 64.078125 
Q 24.65625 74.21875 41.21875 74.21875 
Q 47.75 74.21875 53.53125 72.484375 
Q 59.328125 70.75 64.40625 67.28125 
" id="DejaVuSans-43"/>
    </defs>
    <g transform="translate(373.58275 172.3575)scale(0.16 -0.16)">
     <use xlink:href="#DejaVuSans-43"/>
    </g>
   </g>
   <g id="text_6">
    <!-- 115 -->
    <g transform="translate(363.899 209.2625)scale(0.16 -0.16)">
     <use xlink:href="#DejaVuSans-31"/>
     <use x="63.623047" xlink:href="#DejaVuSans-31"/>
     <use x="127.246094" xlink:href="#DejaVuSans-35"/>
    </g>
   </g>
   <g id="text_7">
    <!-- D -->
    <defs>
     <path d="M 19.671875 64.796875 
L 19.671875 8.109375 
L 31.59375 8.109375 
Q 46.6875 8.109375 53.6875 14.9375 
Q 60.6875 21.78125 60.6875 36.53125 
Q 60.6875 51.171875 53.6875 57.984375 
Q 46.6875 64.796875 31.59375 64.796875 
z
M 9.8125 72.90625 
L 30.078125 72.90625 
Q 51.265625 72.90625 61.171875 64.09375 
Q 71.09375 55.28125 71.09375 36.53125 
Q 71.09375 17.671875 61.125 8.828125 
Q 51.171875 0 30.078125 0 
L 9.8125 0 
z
" id="DejaVuSans-44"/>
    </defs>
    <g transform="translate(324.409 172.3575)scale(0.16 -0.16)">
     <use xlink:href="#DejaVuSans-44"/>
    </g>
   </g>
   <g id="text_8">
    <!-- 120 -->
    <defs>
     <path d="M 19.1875 8.296875 
L 53.609375 8.296875 
L 53.609375 0 
L 7.328125 0 
L 7.328125 8.296875 
Q 12.9375 14.109375 22.625 23.890625 
Q 32.328125 33.6875 34.8125 36.53125 
Q 39.546875 41.84375 41.421875 45.53125 
Q 43.3125 49.21875 43.3125 52.78125 
Q 43.3125 58.59375 39.234375 62.25 
Q 35.15625 65.921875 28.609375 65.921875 
Q 23.96875 65.921875 18.8125 64.3125 
Q 13.671875 62.703125 7.8125 59.421875 
L 7.8125 69.390625 
Q 13.765625 71.78125 18.9375 73 
Q 24.125 74.21875 28.421875 74.21875 
Q 39.75 74.21875 46.484375 68.546875 
Q 53.21875 62.890625 53.21875 53.421875 
Q 53.21875 48.921875 51.53125 44.890625 
Q 49.859375 40.875 45.40625 35.40625 
Q 44.1875 33.984375 37.640625 27.21875 
Q 31.109375 20.453125 19.1875 8.296875 
" id="DejaVuSans-32"/>
    </defs>
    <g transform="translate(315.299 209.2625)scale(0.16 -0.16)">
     <use xlink:href="#DejaVuSans-31"/>
     <use x="63.623047" xlink:href="#DejaVuSans-32"/>
     <use x="127.246094" xlink:href="#DejaVuSans-30"/>
    </g>
   </g>
   <g id="text_9">
    <!-- E -->
    <defs>
     <path d="M 9.8125 72.90625 
L 55.90625 72.90625 
L 55.90625 64.59375 
L 19.671875 64.59375 
L 19.671875 43.015625 
L 54.390625 43.015625 
L 54.390625 34.71875 
L 19.671875 34.71875 
L 19.671875 8.296875 
L 56.78125 8.296875 
L 56.78125 0 
L 9.8125 0 
z
" id="DejaVuSans-45"/>
    </defs>
    <g transform="translate(276.914 172.3575)scale(0.16 -0.16)">
     <use xlink:href="#DejaVuSans-45"/>
    </g>
   </g>
   <g id="text_10">
    <!-- 125 -->
    <g transform="translate(266.699 209.2625)scale(0.16 -0.16)">
     <use xlink:href="#DejaVuSans-31"/>
     <use x="63.623047" xlink:href="#DejaVuSans-32"/>
     <use x="127.246094" xlink:href="#DejaVuSans-35"/>
    </g>
   </g>
   <g id="text_11">
    <!-- D -->
    <g transform="translate(227.209 172.3575)scale(0.16 -0.16)">
     <use xlink:href="#DejaVuSans-44"/>
    </g>
   </g>
   <g id="text_12">
    <!-- 130 -->
    <defs>
     <path d="M 40.578125 39.3125 
Q 47.65625 37.796875 51.625 33 
Q 55.609375 28.21875 55.609375 21.1875 
Q 55.609375 10.40625 48.1875 4.484375 
Q 40.765625 -1.421875 27.09375 -1.421875 
Q 22.515625 -1.421875 17.65625 -0.515625 
Q 12.796875 0.390625 7.625 2.203125 
L 7.625 11.71875 
Q 11.71875 9.328125 16.59375 8.109375 
Q 21.484375 6.890625 26.8125 6.890625 
Q 36.078125 6.890625 40.9375 10.546875 
Q 45.796875 14.203125 45.796875 21.1875 
Q 45.796875 27.640625 41.28125 31.265625 
Q 36.765625 34.90625 28.71875 34.90625 
L 20.21875 34.90625 
L 20.21875 43.015625 
L 29.109375 43.015625 
Q 36.375 43.015625 40.234375 45.921875 
Q 44.09375 48.828125 44.09375 54.296875 
Q 44.09375 59.90625 40.109375 62.90625 
Q 36.140625 65.921875 28.71875 65.921875 
Q 24.65625 65.921875 20.015625 65.03125 
Q 15.375 64.15625 9.8125 62.3125 
L 9.8125 71.09375 
Q 15.4375 72.65625 20.34375 73.4375 
Q 25.25 74.21875 29.59375 74.21875 
Q 40.828125 74.21875 47.359375 69.109375 
Q 53.90625 64.015625 53.90625 55.328125 
Q 53.90625 49.265625 50.4375 45.09375 
Q 46.96875 40.921875 40.578125 39.3125 
" id="DejaVuSans-33"/>
    </defs>
    <g transform="translate(218.099 209.2625)scale(0.16 -0.16)">
     <use xlink:href="#DejaVuSans-31"/>
     <use x="63.623047" xlink:href="#DejaVuSans-33"/>
     <use x="127.246094" xlink:href="#DejaVuSans-30"/>
    </g>
   </g>
   <g id="text_13">
    <!-- C -->
    <g transform="translate(179.18275 172.3575)scale(0.16 -0.16)">
     <use xlink:href="#DejaVuSans-43"/>
    </g>
   </g>
   <g id="text_14">
    <!-- 135 -->
    <g transform="translate(169.499 209.2625)scale(0.16 -0.16)">
     <use xlink:href="#DejaVuSans-31"/>
     <use x="63.623047" xlink:href="#DejaVuSans-33"/>
     <use x="127.246094" xlink:href="#DejaVuSans-35"/>
    </g>
   </g>
   <g id="text_15">
    <!-- B -->
    <g transform="translate(130.68025 180.0075)scale(0.16 -0.16)">
     <use xlink:href="#DejaVuSans-42"/>
    </g>
   </g>
   <g id="text_16">
    <!-- 140 -->
    <defs>
     <path d="M 37.796875 64.3125 
L 12.890625 25.390625 
L 37.796875 25.390625 
z
M 35.203125 72.90625 
L 47.609375 72.90625 
L 47.609375 25.390625 
L 58.015625 25.390625 
L 58.015625 17.1875 
L 47.609375 17.1875 
L 47.609375 0 
L 37.796875 0 
L 37.796875 17.1875 
L 4.890625 17.1875 
L 4.890625 26.703125 
z
" id="DejaVuSans-34"/>
    </defs>
    <g transform="translate(120.899 215.3825)scale(0.16 -0.16)">
     <use xlink:href="#DejaVuSans-31"/>
     <use x="63.623047" xlink:href="#DejaVuSans-34"/>
     <use x="127.246094" xlink:href="#DejaVuSans-30"/>
    </g>
   </g>
   <g id="text_17">
    <!-- A -->
    <g transform="translate(73.9965 177.4575)scale(0.16 -0.16)">
     <use xlink:href="#DejaVuSans-41"/>
    </g>
   </g>
   <g id="text_18">
    <!-- 145 -->
    <g transform="translate(64.199 204.1625)scale(0.16 -0.16)">
     <use xlink:href="#DejaVuSans-31"/>
     <use x="63.623047" xlink:href="#DejaVuSans-34"/>
     <use x="127.246094" xlink:href="#DejaVuSans-35"/>
    </g>
   </g>
   <g id="text_19">
    <!-- G -->
    <defs>
     <path d="M 59.515625 10.40625 
L 59.515625 29.984375 
L 43.40625 29.984375 
L 43.40625 38.09375 
L 69.28125 38.09375 
L 69.28125 6.78125 
Q 63.578125 2.734375 56.6875 0.65625 
Q 49.8125 -1.421875 42 -1.421875 
Q 24.90625 -1.421875 15.25 8.5625 
Q 5.609375 18.5625 5.609375 36.375 
Q 5.609375 54.25 15.25 64.234375 
Q 24.90625 74.21875 42 74.21875 
Q 49.125 74.21875 55.546875 72.453125 
Q 61.96875 70.703125 67.390625 67.28125 
L 67.390625 56.78125 
Q 61.921875 61.421875 55.765625 63.765625 
Q 49.609375 66.109375 42.828125 66.109375 
Q 29.4375 66.109375 22.71875 58.640625 
Q 16.015625 51.171875 16.015625 36.375 
Q 16.015625 21.625 22.71875 14.15625 
Q 29.4375 6.6875 42.828125 6.6875 
Q 48.046875 6.6875 52.140625 7.59375 
Q 56.25 8.5 59.515625 10.40625 
" id="DejaVuSans-47"/>
    </defs>
    <g transform="translate(40.87025 157.0575)scale(0.16 -0.16)">
     <use xlink:href="#DejaVuSans-47"/>
    </g>
   </g>
   <g id="text_20">
    <!-- 150 -->
    <g transform="translate(31.799 224.5625)scale(0.16 -0.16)">
     <use xlink:href="#DejaVuSans-31"/>
     <use x="63.623047" xlink:href="#DejaVuSans-35"/>
     <use x="127.246094" xlink:href="#DejaVuSans-30"/>
    </g>
   </g>
   <g id="text_21">
    <!-- A -->
    <g transform="translate(478.9965 39.7575)scale(0.16 -0.16)">
     <use xlink:href="#DejaVuSans-41"/>
    </g>
   </g>
   <g id="text_22">
    <!-- 205 -->
    <g transform="translate(469.199 66.4625)scale(0.16 -0.16)">
     <use xlink:href="#DejaVuSans-32"/>
     <use x="63.623047" xlink:href="#DejaVuSans-30"/>
     <use x="127.246094" xlink:href="#DejaVuSans-35"/>
    </g>
   </g>
   <g id="text_23">
    <!-- B -->
    <g transform="translate(422.28025 42.3075)scale(0.16 -0.16)">
     <use xlink:href="#DejaVuSans-42"/>
    </g>
   </g>
   <g id="text_24">
    <!-- 210 -->
    <g transform="translate(412.499 77.6825)scale(0.16 -0.16)">
     <use xlink:href="#DejaVuSans-32"/>
     <use x="63.623047" xlink:href="#DejaVuSans-31"/>
     <use x="127.246094" xlink:href="#DejaVuSans-30"/>
    </g>
   </g>
   <g id="text_25">
    <!-- C -->
    <g transform="translate(373.58275 34.6575)scale(0.16 -0.16)">
     <use xlink:href="#DejaVuSans-43"/>
    </g>
   </g>
   <g id="text_26">
    <!-- 215 -->
    <g transform="translate(363.899 71.5625)scale(0.16 -0.16)">
     <use xlink:href="#DejaVuSans-32"/>
     <use x="63.623047" xlink:href="#DejaVuSans-31"/>
     <use x="127.246094" xlink:href="#DejaVuSans-35"/>
    </g>
   </g>
   <g id="text_27">
    <!-- D -->
    <g transform="translate(324.409 34.6575)scale(0.16 -0.16)">
     <use xlink:href="#DejaVuSans-44"/>
    </g>
   </g>
   <g id="text_28">
    <!-- 220 -->
    <g transform="translate(315.299 71.5625)scale(0.16 -0.16)">
     <use xlink:href="#DejaVuSans-32"/>
     <use x="63.623047" xlink:href="#DejaVuSans-32"/>
     <use x="127.246094" xlink:href="#DejaVuSans-30"/>
    </g>
   </g>
   <g id="text_29">
    <!-- E -->
    <g transform="translate(276.914 34.6575)scale(0.16 -0.16)">
     <use xlink:href="#DejaVuSans-45"/>
    </g>
   </g>
   <g id="text_30">
    <!-- 225 -->
    <g transform="translate(266.699 71.5625)scale(0.16 -0.16)">
     <use xlink:href="#DejaVuSans-32"/>
     <use x="63.623047" xlink:href="#DejaVuSans-32"/>
     <use x="127.246094" xlink:href="#DejaVuSans-35"/>
    </g>
   </g>
   <g id="text_31">
    <!-- D -->
    <g transform="translate(227.209 34.6575)scale(0.16 -0.16)">
     <use xlink:href="#DejaVuSans-44"/>
    </g>
   </g>
   <g id="text_32">
    <!-- 230 -->
    <g transform="translate(218.099 71.5625)scale(0.16 -0.16)">
     <use xlink:href="#DejaVuSans-32"/>
     <use x="63.623047" xlink:href="#DejaVuSans-33"/>
     <use x="127.246094" xlink:href="#DejaVuSans-30"/>
    </g>
   </g>
   <g id="text_33">
    <!-- C -->
    <g transform="translate(179.18275 34.6575)scale(0.16 -0.16)">
     <use xlink:href="#DejaVuSans-43"/>
    </g>
   </g>
   <g id="text_34">
    <!-- 235 -->
    <g transform="translate(169.499 71.5625)scale(0.16 -0.16)">
     <use xlink:href="#DejaVuSans-32"/>
     <use x="63.623047" xlink:href="#DejaVuSans-33"/>
     <use x="127.246094" xlink:href="#DejaVuSans-35"/>
    </g>
   </g>
   <g id="text_35">
    <!-- B -->
    <g transform="translate(130.68025 42.3075)scale(0.16 -0.16)">
     <use xlink:href="#DejaVuSans-42"/>
    </g>
   </g>
   <g id="text_36">
    <!-- 240 -->
    <g transform="translate(120.899 77.6825)scale(0.16 -0.16)">
     <use xlink:href="#DejaVuSans-32"/>
     <use x="63.623047" xlink:href="#DejaVuSans-34"/>
     <use x="127.246094" xlink:href="#DejaVuSans-30"/>
    </g>
   </g>
   <g id="text_37">
    <!-- A -->
    <g transform="translate(73.9965 39.7575)scale(0.16 -0.16)">
     <use xlink:href="#DejaVuSans-41"/>
    </g>
   </g>
   <g id="text_38">
    <!-- 245 -->
    <g transform="translate(64.199 66.4625)scale(0.16 -0.16)">
     <use xlink:href="#DejaVuSans-32"/>
     <use x="63.623047" xlink:href="#DejaVuSans-34"/>
     <use x="127.246094" xlink:href="#DejaVuSans-35"/>
    </g>
   </g>
   <g id="text_39">
    <!-- G -->
    <g transform="translate(40.87025 19.3575)scale(0.16 -0.16)">
     <use xlink:href="#DejaVuSans-47"/>
    </g>
   </g>
   <g id="text_40">
    <!-- 250 -->
    <g transform="translate(31.799 86.8625)scale(0.16 -0.16)">
     <use xlink:href="#DejaVuSans-32"/>
     <use x="63.623047" xlink:href="#DejaVuSans-35"/>
     <use x="127.246094" xlink:href="#DejaVuSans-30"/>
    </g>
   </g>
   <g id="text_41">
    <!-- A -->
    <g transform="translate(550.2765 177.4575)scale(0.16 -0.16)">
     <use xlink:href="#DejaVuSans-41"/>
    </g>
   </g>
   <g id="text_42">
    <!-- 305 -->
    <g transform="translate(540.479 204.1625)scale(0.16 -0.16)">
     <use xlink:href="#DejaVuSans-33"/>
     <use x="63.623047" xlink:href="#DejaVuSans-30"/>
     <use x="127.246094" xlink:href="#DejaVuSans-35"/>
    </g>
   </g>
   <g id="text_43">
    <!-- F -->
    <defs>
     <path d="M 9.8125 72.90625 
L 51.703125 72.90625 
L 51.703125 64.59375 
L 19.671875 64.59375 
L 19.671875 43.109375 
L 48.578125 43.109375 
L 48.578125 34.8125 
L 19.671875 34.8125 
L 19.671875 0 
L 9.8125 0 
z
" id="DejaVuSans-46"/>
    </defs>
    <g transform="translate(615.94775 172.3575)scale(0.16 -0.16)">
     <use xlink:href="#DejaVuSans-46"/>
    </g>
   </g>
   <g id="text_44">
    <!-- 310 -->
    <g transform="translate(605.279 209.2625)scale(0.16 -0.16)">
     <use xlink:href="#DejaVuSans-33"/>
     <use x="63.623047" xlink:href="#DejaVuSans-31"/>
     <use x="127.246094" xlink:href="#DejaVuSans-30"/>
    </g>
   </g>
  </g>
 </g>
 <defs>
  <clipPath id="pe5060b7a29">
   <rect height="208.08" width="675.918" x="10.7" y="13.505"/>
  </clipPath>
 </defs>
</svg>
